<svg xmlns="http://www.w3.org/2000/svg" viewBox="0 0 128 128" role="img" aria-label="Instagram DM Chat Extractor icon">
  <defs>
    <linearGradient id="bg" x1="8" y1="120" x2="120" y2="8" gradientUnits="userSpaceOnUse">
      <stop offset="0" stop-color="#FFDC80"/>
      <stop offset="0.15" stop-color="#FCAF45"/>
      <stop offset="0.35" stop-color="#F77737"/>
      <stop offset="0.5" stop-color="#F56040"/>
      <stop offset="0.65" stop-color="#E1306C"/>
      <stop offset="0.8" stop-color="#C13584"/>
      <stop offset="1" stop-color="#833AB4"/>
    </linearGradient>
    <linearGradient id="badge" x1="74" y1="100" x2="110" y2="64" gradientUnits="userSpaceOnUse">
      <stop offset="0" stop-color="#5B51D8"/>
      <stop offset="0.4" stop-color="#833AB4"/>
      <stop offset="0.7" stop-color="#C13584"/>
      <stop offset="1" stop-color="#E1306C"/>
    </linearGradient>
    <radialGradient id="glow" cx="92" cy="82" r="20" gradientUnits="userSpaceOnUse">
      <stop offset="0" stop-color="#E1306C" stop-opacity="0.22"/>
      <stop offset="1" stop-color="#E1306C" stop-opacity="0"/>
    </radialGradient>
    <filter id="shadow" x="-20%" y="-20%" width="140%" height="140%">
      <feDropShadow dx="0" dy="2" stdDeviation="2" flood-color="#000" flood-opacity="0.25"/>
    </filter>
    <filter id="badge-shadow" x="-30%" y="-30%" width="160%" height="160%">
      <feDropShadow dx="0" dy="1" stdDeviation="2.5" flood-color="#5B51D8" flood-opacity="0.35"/>
    </filter>
  </defs>

  <rect x="8" y="8" width="112" height="112" rx="28" fill="url(#bg)"/>
  <rect x="8" y="8" width="112" height="112" rx="28" fill="none" stroke="#FFFFFF" stroke-opacity="0.22" stroke-width="2"/>

  <g filter="url(#shadow)">
    <path d="M34 28h60c8.8 0 16 7.2 16 16v30c0 8.8-7.2 16-16 16H64L46 104V90H34c-8.8 0-16-7.2-16-16V44c0-8.8 7.2-16 16-16z" fill="#fff"/>
    <rect x="42" y="42" width="44" height="7" rx="3.5" fill="#E1306C"/>
    <rect x="42" y="54" width="30" height="7" rx="3.5" fill="#F56040"/>
    <rect x="42" y="66" width="24" height="7" rx="3.5" fill="#FCAF45"/>
  </g>

  <circle cx="92" cy="82" r="20" fill="url(#glow)"/>

  <g filter="url(#badge-shadow)">
    <circle cx="92" cy="82" r="18" fill="url(#badge)" stroke="#fff" stroke-width="2.5"/>
  </g>
  <path d="M92 73v12" stroke="#fff" stroke-width="4" stroke-linecap="round"/>
  <path d="M85.5 81.5 92 88 98.5 81.5" fill="none" stroke="#fff" stroke-width="4" stroke-linecap="round" stroke-linejoin="round"/>
  <rect x="84" y="90" width="16" height="4" rx="2" fill="#fff" opacity="0.95"/>
</svg>
